<svg width="24" height="24" viewBox="0 0 24 24" fill="none" xmlns="http://www.w3.org/2000/svg">
<g clip-path="url(#clip0_1716_2609)">
<path d="M14.089 23.088L9.92261 18.9164L18.8745 9.87421L23.117 14.116L14.089 23.088Z" fill="#8AB4F8"/>
<path d="M14.1204 5.12264L9.87592 0.878845L0.879089 9.87421C0.600619 10.1526 0.379722 10.4831 0.229012 10.8468C0.0783022 11.2106 0.000732422 11.6004 0.000732422 11.9942C0.000732422 12.3879 0.0783022 12.7777 0.229012 13.1415C0.379722 13.5052 0.600619 13.8357 0.879089 14.1141L9.87592 23.1095L14.0384 18.9301L7.24093 12.001L14.1204 5.12264Z" fill="#4285F4"/>
<path d="M23.117 9.8742L14.1202 0.878839C13.5576 0.316076 12.7944 -0.000183011 11.9986 -0.000366131C11.2028 -0.000549252 10.4395 0.315359 9.87666 0.877862C9.31381 1.44037 8.9975 2.20339 8.99731 2.99907C8.99713 3.79475 9.31309 4.55792 9.87569 5.12068L18.8784 14.116C19.4437 14.665 20.2025 14.9696 20.9906 14.9638C21.7787 14.958 22.5328 14.6425 23.0901 14.0853C23.6474 13.5281 23.963 12.774 23.9688 11.986C23.9746 11.1981 23.67 10.4395 23.1209 9.8742H23.117Z" fill="#8AB4F8"/>
<path d="M14.9387 21.0256C14.9387 20.4373 14.7642 19.8621 14.4372 19.373C14.1103 18.8838 13.6455 18.5026 13.1018 18.2775C12.5581 18.0524 11.9599 17.9936 11.3828 18.1086C10.8057 18.2235 10.2756 18.507 9.85964 18.9231C9.44368 19.3393 9.1605 19.8695 9.04594 20.4466C8.93137 21.0237 8.99056 21.6218 9.21602 22.1652C9.44148 22.7087 9.82308 23.1731 10.3125 23.4997C10.802 23.8263 11.3774 24.0004 11.9658 24C12.3564 24 12.7431 23.9231 13.104 23.7736C13.4648 23.6241 13.7926 23.4049 14.0687 23.1287C14.3448 22.8525 14.5637 22.5246 14.713 22.1637C14.8623 21.8029 14.939 21.4161 14.9387 21.0256Z" fill="#246FDB"/>
</g>
<defs>
<clipPath id="clip0_1716_2609">
<rect width="24" height="24" fill="white"/>
</clipPath>
</defs>
</svg>
