<svg width="21" height="24" viewBox="0 0 21 24" fill="none" xmlns="http://www.w3.org/2000/svg">
<path d="M19.7683 4.96049L11.6646 0.281808C11.2962 0.096507 10.8894 0 10.477 0C10.0646 0 9.65787 0.096507 9.2894 0.281808L1.18572 4.96049C0.841234 5.18725 0.554581 5.49147 0.348693 5.84883C0.142804 6.20618 0.0233894 6.60676 0 7.01852V16.3759C0.0239658 16.787 0.143653 17.1868 0.349517 17.5435C0.55538 17.9001 0.841727 18.2038 1.18572 18.4301L2.08823 18.9512L10.4789 24L18.8734 18.9588L19.7645 18.4452C20.1085 18.2189 20.3949 17.9152 20.6007 17.5586C20.8066 17.2019 20.9263 16.8021 20.9502 16.391V7.01474C20.9267 6.60396 20.8076 6.20436 20.6024 5.84773C20.3972 5.4911 20.1116 5.18729 19.7683 4.96049ZM5.65672 16.7422C5.37292 16.7405 5.10134 16.6265 4.90148 16.425L0.894956 12.4147C0.697527 12.2129 0.586971 11.9418 0.586971 11.6594C0.586971 11.3771 0.697527 11.106 0.894956 10.9042L4.90148 6.87502C4.99384 6.7501 5.11207 6.64658 5.24808 6.57153C5.3841 6.49647 5.53472 6.45164 5.68964 6.44009C5.84457 6.42855 6.00016 6.45057 6.1458 6.50465C6.29144 6.55872 6.42369 6.64358 6.53354 6.75343C6.6434 6.86328 6.72826 6.99554 6.78233 7.14118C6.83641 7.28682 6.85842 7.44241 6.84688 7.59733C6.83534 7.75226 6.79051 7.90287 6.71545 8.03889C6.64039 8.17491 6.53687 8.29313 6.41196 8.38549L3.15689 11.6406L6.40063 14.8843C6.55541 15.0334 6.6622 15.2252 6.70735 15.4353C6.7525 15.6454 6.73395 15.8642 6.65407 16.0637C6.5742 16.2631 6.43663 16.4343 6.25896 16.5551C6.08129 16.676 5.8716 16.7411 5.65672 16.7422ZM8.76074 17.69C8.6731 17.8755 8.53476 18.0325 8.3617 18.1428C8.18863 18.253 7.98791 18.3121 7.78271 18.3131C7.60061 18.3133 7.42142 18.2674 7.26179 18.1798C7.10216 18.0922 6.96728 17.9656 6.86969 17.8119C6.7721 17.6582 6.71496 17.4822 6.70359 17.3005C6.69223 17.1188 6.727 16.9371 6.80468 16.7724L12.3103 5.06623C12.3706 4.9378 12.4556 4.82248 12.5604 4.72688C12.6652 4.63128 12.7878 4.55725 12.9212 4.50904C13.0547 4.46082 13.1963 4.43936 13.338 4.44587C13.4797 4.45239 13.6187 4.48676 13.7472 4.54701C13.8756 4.60726 13.9909 4.69222 14.0865 4.79703C14.1821 4.90185 14.2562 5.02447 14.3044 5.15789C14.3526 5.29131 14.3741 5.43293 14.3675 5.57464C14.361 5.71636 14.3267 5.85541 14.2664 5.98384L8.76074 17.69ZM20.0666 12.4033L16.0488 16.4212C15.9564 16.5461 15.8382 16.6496 15.7022 16.7247C15.5661 16.7998 15.4155 16.8446 15.2606 16.8561C15.1057 16.8677 14.9501 16.8457 14.8045 16.7916C14.6588 16.7375 14.5266 16.6526 14.4167 16.5428C14.3069 16.4329 14.222 16.3007 14.1679 16.155C14.1138 16.0094 14.0918 15.8538 14.1034 15.6989C14.1149 15.544 14.1597 15.3934 14.2348 15.2573C14.3099 15.1213 14.4134 15.0031 14.5383 14.9107L17.7934 11.6557L14.5307 8.38549C14.3333 8.18368 14.2228 7.91258 14.2228 7.63026C14.2228 7.34793 14.3333 7.07683 14.5307 6.87502C14.7357 6.68363 15.0056 6.57717 15.286 6.57717C15.5664 6.57717 15.8363 6.68363 16.0412 6.87502L20.0515 10.8815C20.2555 11.082 20.3717 11.3552 20.3745 11.6412C20.3774 11.9272 20.2666 12.2027 20.0666 12.4071V12.4033Z" fill="#4367B1"/>
</svg>
