<svg width="539" height="400" viewBox="0 0 539 400" fill="none" xmlns="http://www.w3.org/2000/svg">
<g clip-path="url(#clip0_136_2)">
<path d="M353 401C342.312 401 331.625 401 320.775 400.658C319.957 399.883 319.349 399.186 318.638 399.055C303.794 396.332 290.816 389.824 279.971 379.399C265.995 365.963 252.992 351.558 236.505 340.836C216.499 327.827 196.227 326.536 175.146 337.4C165.595 342.322 156.413 347.998 146.703 352.567C134.784 358.175 122.233 359.533 110.385 352.639C90.9759 341.346 77.2486 324.601 67.0024 304.862C61.4049 294.079 57.2927 282.587 56.2949 270.583C55.5366 261.462 57.3119 252.13 57.9713 243.316C58.7227 255.642 65.3116 263.38 75.7887 268.018C84.3045 271.788 93.1571 272.404 102.511 271.188C112.449 269.895 122.222 268.62 131.56 264.028C135.195 264.293 138.575 264.956 141.761 264.435C144.956 263.913 147.958 262.21 151.325 261.224C155.809 270.411 158.119 271.389 167.51 267.93C171.711 266.383 175.844 264.655 180.315 263.174C184.06 267.663 188.324 267.748 193.06 265.873C198.115 263.872 203.266 262.107 208.284 260.021C212.306 258.35 216.192 256.353 220.423 254.757C222.942 258.12 225.924 259.467 229.341 257.461C232.928 255.356 232.342 252.025 231.059 248.633C224.999 232.604 218.995 216.554 213.028 200.49C211.827 197.257 210.126 194.562 206.26 195.213C202.044 195.923 200.67 198.966 200.748 203.001C191.09 206.399 181.879 209.954 172.536 213.12C167.602 214.793 165.532 218.183 164.616 223.034C161.93 223.99 159.62 224.907 157.293 225.781C144.133 230.724 144.132 230.72 143.525 243.783C140.4 244.951 137.661 246.082 134.851 246.996C130.442 248.43 127.987 251.312 127.337 255.996C113.642 259.343 100.392 262.698 86.4162 260.054C70.6486 257.071 63.1672 243.143 70.2763 228.617C74.9537 219.06 79.3942 209.505 81.3927 198.822C83.9056 194.287 86.1391 189.854 88.2133 185.347C95.7347 169.007 94.5835 153.543 84.3009 138.497C79.6431 131.682 74.9066 124.734 74.884 115.628C74.8513 102.434 79.4123 90.8339 86.4856 80.2405C92.2445 71.6157 99.9349 64.6667 109.926 61.02C126.239 55.0659 141.881 57.1071 156.595 65.9994C171.968 75.2898 188.493 78.9838 206.396 78.1343C216.083 77.6747 225.345 75.9531 234.565 73.1429C264.323 64.0732 288.458 46.0062 310.962 25.4375C322.516 14.8779 335.094 6.4841 350.547 2.92341C351.147 2.78514 351.521 1.66345 352 1C359.354 1 366.709 1 374.227 1.33562C377.248 2.59315 380.142 3.41463 382.956 4.45332C400.642 10.9807 414.406 22.8153 425.677 37.4565C436.006 50.8731 444.329 65.5767 450.184 81.5787C455.714 96.6917 460.821 111.931 459.923 128.311C459.38 138.216 458.075 148.08 456.708 157.965C443.978 154.265 431.489 152.743 418.336 155.066C415.415 154.942 412.732 154.387 410.339 154.989C406.2 156.03 402.241 157.789 397.874 159.071C396.864 157.604 396.035 156.368 395.534 155.011C392.451 146.673 389.109 145.014 380.702 147.984C376.027 149.636 371.43 151.508 366.549 153.035C364.971 149.554 363.309 146.517 359.097 147.475C355.255 148.349 353.777 151.148 353.82 155.032C342.704 159.065 332.016 163.183 321.222 167.004C316.719 168.599 313.826 171.252 312.626 176.045C305.556 178.543 298.785 180.823 292.21 183.573C290.511 184.283 288.76 186.293 288.303 188.038C288.008 189.162 289.775 191.763 291.073 192.141C292.87 192.665 295.179 191.983 297.122 191.36C303.424 189.341 309.659 187.114 316.083 185.295C318.867 193.056 321.487 200.489 323.71 207.954C316.953 210.261 310.634 212.663 304.214 214.756C300.969 215.814 299.166 217.736 300.27 220.957C301.529 224.632 304.471 224.422 307.646 223.194C314.101 220.696 320.622 218.371 327.376 216.195C331.581 221.733 335.391 222.388 343.009 219.475C353.368 215.513 363.796 211.732 374.469 208.073C377.265 208.797 380.248 210.365 382.164 209.518C383.733 208.825 384.167 205.293 384.82 202.94C385.049 202.119 384.432 201.062 384.56 200.035C387.902 198.92 390.901 197.928 393.864 196.837C407.189 191.933 407.827 190.684 404.44 177.078C407.454 176.031 410.286 175.384 412.699 174.005C416.306 171.943 419.619 169.365 423.482 167.002C429.944 166.666 436 165.894 442.009 166.162C445.726 166.328 449.372 168.076 453.027 169.505C446.167 185.269 439.933 200.945 432.335 215.931C423.616 233.126 413.677 249.819 409.268 268.734C405.761 283.785 407.189 298.499 417.605 311.153C426.063 321.429 428.989 333.07 424.905 345.855C421.24 357.324 414.12 366.509 405.096 374.526C390.592 387.41 373.873 395.378 354.948 399.069C354.201 399.214 353.645 400.334 353 401ZM221.872 162.611C228.315 167.845 234.745 173.094 241.207 178.304C243.429 180.095 246.021 182.372 248.516 179.345C250.813 176.556 248.71 174.116 246.52 172.085C235.559 161.92 224.603 151.749 213.647 141.578C211.105 139.217 208.578 137.697 205.579 141.021C202.634 144.285 202.808 147.145 206.251 149.907C211.3 153.958 216.295 158.076 221.872 162.611ZM328.207 283.299C320.18 272.304 312.168 261.297 304.112 250.323C302.503 248.132 300.37 245.542 297.734 248.013C296.567 249.107 296.443 252.848 297.408 254.441C305.488 267.782 313.898 280.924 322.292 294.072C323.989 296.728 326.244 298.054 329.397 295.887C332.446 293.792 333.729 291.34 331.536 287.929C330.64 286.534 329.616 285.221 328.207 283.299ZM283.92 139.47C284.678 133.545 285.394 127.615 286.208 121.698C286.745 117.792 284.86 116.315 281.205 115.989C276.563 115.576 275.526 118.278 275.332 122.061C274.737 133.669 273.945 145.27 273.626 156.884C273.578 158.617 275.316 161.453 276.83 161.952C279.94 162.979 280.994 160.337 281.373 157.593C282.168 151.843 283.024 146.1 283.92 139.47ZM257.164 295.694C260.597 285.119 264.032 274.545 267.461 263.968C268.312 261.344 269.16 258.479 265.75 257.191C262.349 255.905 261.093 258.534 260.023 261.134C255.665 271.724 251.329 282.323 246.872 292.871C245.444 296.248 245.22 298.961 249.269 300.543C253.461 302.181 256.01 300.865 257.164 295.694ZM280.966 280.389C280.942 281.382 280.898 282.376 280.897 283.369C280.892 285.786 280.143 288.694 284.016 288.837C287.885 288.98 288.088 286.379 287.936 283.469C287.564 276.359 287.378 269.236 286.812 262.142C286.712 260.885 285.137 259.745 284.243 258.551C283.354 259.716 281.789 260.827 281.691 262.056C281.231 267.826 281.173 273.628 280.966 280.389ZM252.024 152.505C253.188 156.14 254.181 159.847 255.626 163.368C256.043 164.384 257.763 164.866 258.886 165.593C259.448 164.371 260.683 163.014 260.467 161.951C258.911 154.3 257.211 146.668 255.153 139.141C254.819 137.92 252.479 137.247 251.067 136.32C250.222 137.971 248.482 139.76 248.711 141.244C249.263 144.815 250.739 148.243 252.024 152.505Z" fill="#E5E7EB"/>
<path d="M57.9713 243.316C57.0051 230.342 62.7331 219.665 67.6895 208.83C72.1307 199.122 70.0997 187.068 63.2494 183.157C57.7136 179.996 50.9694 177.402 44.74 177.354C34.4146 177.276 24.0613 179.363 13.7419 180.707C9.39076 181.274 5.29461 181.219 1.32922 178.696C1 177.286 1 175.571 1 173.429C6.89577 170.914 12.6718 168.353 18.7099 166.831C36.472 162.354 53.5735 163.836 69.3965 173.836C78.2814 179.451 81.7052 187.747 81.0218 198.443C79.3941 209.505 74.9536 219.06 70.2762 228.618C63.1672 243.144 70.6485 257.071 86.4162 260.054C100.392 262.698 113.642 259.344 127.433 256.358C129.014 259.105 130.117 261.506 131.219 263.907C122.222 268.621 112.449 269.895 102.511 271.188C93.1571 272.404 84.3045 271.788 75.7886 268.018C65.3115 263.38 58.7227 255.642 57.9713 243.316Z" fill="#6A7282"/>
<path d="M540 243.6C539.249 244.256 538.13 244.28 537.801 244.803C532.346 253.449 523.302 256.153 514.382 258.968C503.896 262.279 493.009 262.789 482.221 261.853C471.467 260.92 456.61 250.917 454.778 237.967C453.187 226.729 456.815 217.01 460.469 207.043C462.448 201.646 464.862 196.389 466.518 190.899C468.698 183.673 464.288 171.381 453.427 169.062C449.373 168.075 445.726 166.328 442.01 166.162C436 165.894 429.944 166.665 423.471 166.577C423.626 161.689 421.958 158.11 418.705 155.156C431.489 152.743 443.978 154.265 456.708 157.965C462.399 161.557 468.672 164.287 472.755 168.94C479.909 177.092 479.42 187.39 476.254 197.106C473.533 205.455 469.25 213.283 466.26 221.559C461.705 234.167 468.564 246.251 481.673 248.951C496.149 251.933 510.149 249.302 523.877 244.579C527.512 243.329 531.084 241.874 534.763 240.778C536.178 240.357 537.813 240.675 539.674 240.328C540 241.066 540 242.133 540 243.6Z" fill="#6A7282"/>
<path d="M312.997 176.002C313.826 171.252 316.719 168.599 321.222 167.004C332.016 163.183 342.704 159.065 354.058 155.281C361.185 172.955 367.689 190.414 374.194 207.873C363.795 211.732 353.368 215.513 343.009 219.475C335.391 222.388 331.581 221.733 327.344 215.82C326.07 212.79 325.089 210.356 324.107 207.922C321.487 200.489 318.866 193.056 316.058 184.935C314.912 181.499 313.954 178.751 312.997 176.002Z" fill="#6A7282"/>
<path d="M220.139 254.501C216.193 256.353 212.306 258.35 208.284 260.021C203.266 262.107 198.115 263.872 193.06 265.873C188.324 267.748 184.06 267.663 180.272 262.799C174.943 249.164 169.963 236.07 164.984 222.975C165.532 218.183 167.602 214.793 172.536 213.12C181.879 209.953 191.09 206.399 201 203.24C204.233 210.318 206.909 217.129 209.39 224.01C213.046 234.147 216.563 244.334 220.139 254.501Z" fill="#6A7282"/>
<path d="M404.069 177.15C407.827 190.684 407.189 191.933 393.864 196.837C390.901 197.928 387.902 198.92 384.373 199.708C378.15 184.067 372.474 168.674 366.798 153.282C371.43 151.509 376.026 149.636 380.701 147.984C389.109 145.014 392.451 146.673 395.534 155.012C396.035 156.368 396.863 157.604 397.793 159.45C400.054 165.719 402.061 171.434 404.069 177.15Z" fill="#1E2939"/>
<path d="M164.616 223.034C169.963 236.07 174.942 249.164 179.965 262.634C175.844 264.655 171.71 266.383 167.51 267.93C158.119 271.389 155.809 270.411 151.352 260.826C148.692 254.703 146.286 249.176 143.879 243.649C144.132 230.72 144.133 230.724 157.293 225.781C159.62 224.907 161.93 223.99 164.616 223.034Z" fill="#1E2939"/>
<path d="M366.549 153.035C372.474 168.674 378.15 184.066 384.014 199.786C384.432 201.062 385.049 202.118 384.82 202.94C384.167 205.292 383.733 208.824 382.164 209.518C380.248 210.365 377.265 208.797 374.469 208.073C367.689 190.413 361.185 172.955 354.443 155.246C353.777 151.148 355.255 148.349 359.097 147.475C363.309 146.517 364.971 149.553 366.549 153.035Z" fill="black"/>
<path d="M220.423 254.757C216.563 244.334 213.046 234.147 209.39 224.01C206.909 217.129 204.233 210.318 201.393 203.236C200.67 198.966 202.044 195.923 206.26 195.213C210.126 194.562 211.827 197.257 213.028 200.49C218.995 216.554 224.999 232.604 231.059 248.632C232.342 252.025 232.928 255.355 229.342 257.461C225.924 259.467 222.942 258.119 220.423 254.757Z" fill="black"/>
<path d="M221.593 162.388C216.295 158.076 211.3 153.958 206.251 149.907C202.807 147.146 202.634 144.286 205.579 141.021C208.578 137.697 211.105 139.218 213.647 141.578C224.603 151.749 235.559 161.92 246.52 172.085C248.71 174.116 250.813 176.556 248.515 179.345C246.021 182.372 243.429 180.095 241.207 178.304C234.745 173.094 228.315 167.845 221.593 162.388Z" fill="black"/>
<path d="M328.429 283.584C329.616 285.221 330.64 286.534 331.536 287.929C333.729 291.339 332.446 293.791 329.397 295.887C326.244 298.054 323.989 296.728 322.293 294.071C313.898 280.923 305.488 267.782 297.408 254.441C296.443 252.848 296.567 249.107 297.734 248.013C300.37 245.542 302.504 248.132 304.112 250.323C312.168 261.297 320.18 272.303 328.429 283.584Z" fill="black"/>
<path d="M283.887 139.912C283.024 146.1 282.168 151.842 281.373 157.593C280.994 160.337 279.94 162.978 276.83 161.952C275.316 161.452 273.578 158.616 273.626 156.884C273.945 145.269 274.737 133.668 275.332 122.061C275.526 118.278 276.563 115.575 281.205 115.989C284.86 116.315 286.745 117.792 286.208 121.698C285.394 127.615 284.678 133.545 283.887 139.912Z" fill="black"/>
<path d="M257.062 296.078C256.011 300.865 253.461 302.181 249.269 300.543C245.22 298.96 245.444 296.248 246.872 292.871C251.33 282.323 255.665 271.723 260.023 261.133C261.093 258.533 262.349 255.905 265.75 257.19C269.16 258.479 268.312 261.343 267.461 263.968C264.032 274.544 260.597 285.119 257.062 296.078Z" fill="black"/>
<path d="M404.44 177.078C402.062 171.434 400.054 165.719 398.126 159.625C402.241 157.789 406.2 156.03 410.339 154.989C412.732 154.387 415.415 154.942 418.336 155.066C421.958 158.111 423.626 161.689 423.046 166.582C419.619 169.365 416.307 171.943 412.699 174.005C410.286 175.384 407.454 176.031 404.44 177.078Z" fill="black"/>
<path d="M143.525 243.782C146.286 249.175 148.692 254.702 151.071 260.627C147.958 262.21 144.956 263.913 141.761 264.435C138.575 264.956 135.195 264.292 131.56 264.027C130.117 261.506 129.014 259.105 127.816 256.343C127.987 251.311 130.442 248.429 134.851 246.995C137.661 246.081 140.4 244.95 143.525 243.782Z" fill="black"/>
<path d="M312.626 176.045C313.954 178.75 314.912 181.499 315.895 184.607C309.659 187.113 303.424 189.341 297.122 191.36C295.178 191.983 292.87 192.665 291.073 192.141C289.775 191.762 288.008 189.162 288.303 188.038C288.76 186.292 290.511 184.283 292.21 183.573C298.785 180.823 305.556 178.543 312.626 176.045Z" fill="#FEFFFF"/>
<path d="M323.71 207.954C325.089 210.356 326.07 212.79 327.084 215.599C320.622 218.371 314.1 220.695 307.646 223.194C304.471 224.422 301.529 224.632 300.269 220.957C299.166 217.736 300.968 215.814 304.214 214.756C310.634 212.663 316.952 210.261 323.71 207.954Z" fill="#FEFFFF"/>
<path d="M280.968 279.904C281.173 273.628 281.23 267.826 281.691 262.056C281.789 260.827 283.354 259.716 284.243 258.551C285.137 259.745 286.712 260.885 286.812 262.142C287.378 269.236 287.564 276.359 287.936 283.469C288.088 286.379 287.885 288.98 284.016 288.837C280.143 288.694 280.892 285.786 280.896 283.369C280.898 282.375 280.942 281.382 280.968 279.904Z" fill="black"/>
<path d="M251.932 152.117C250.738 148.243 249.263 144.815 248.711 141.244C248.482 139.76 250.222 137.971 251.066 136.32C252.479 137.247 254.819 137.92 255.153 139.141C257.211 146.668 258.911 154.3 260.466 161.951C260.682 163.014 259.448 164.372 258.885 165.593C257.763 164.866 256.043 164.384 255.626 163.368C254.181 159.847 253.188 156.14 251.932 152.117Z" fill="black"/>
</g>
<defs>
<clipPath id="clip0_136_2">
<rect width="539" height="400" fill="white"/>
</clipPath>
</defs>
</svg>
